<svg xmlns="http://www.w3.org/2000/svg" width="165.219" height="51" viewBox="0 0 165.219 51">
  <g id="Group_570" data-name="Group 570" transform="translate(-165 -22)">
    <g id="Group_567" data-name="Group 567" transform="translate(87.132 -58.745)">
      <path id="Path_254" data-name="Path 254" d="M128.832,109.947q-.713-.048-1.437-.049a21.149,21.149,0,0,0-3.622.311,20.845,20.845,0,0,0-3.146.8c-.588.2-1.163.424-1.726.672q-.191.085-.382.174a15.76,15.76,0,0,1-13.744,20.1q-.035-.8-.015-1.6a22.674,22.674,0,0,1,11.8-19.3c-.169-.42-.365-.816-.551-1.227-.107-.237-.216-.474-.322-.714a22.581,22.581,0,0,1-1.888-9.068,23.04,23.04,0,0,1,.125-2.4l-13.661,15.618-.031.036a.8.8,0,0,1-1.257-.98l.15-.171,3.19-3.647-9.5-10.856a23.042,23.042,0,0,1,.125,2.4,22.747,22.747,0,0,1-.519,4.846q-.1.443-.211.88a22.48,22.48,0,0,1-1.159,3.343c-.276.631-.6,1.23-.852,1.87l-.029.073a22.6,22.6,0,0,1,11.8,19.295c.013.535.009,1.067-.015,1.6a15.785,15.785,0,0,1-13.739-20.1q-.188-.087-.378-.171a21.091,21.091,0,0,0-9.933-1.741q-.037.681-.037,1.372a25.5,25.5,0,1,0,51,0Q128.868,110.628,128.832,109.947Z" transform="translate(0 -5.074)" fill="#ef6c69"/>
      <path id="Path_255" data-name="Path 255" d="M124.734,122.477a20.978,20.978,0,0,0-6.147,14.042,14.188,14.188,0,0,0,10.7-17.5A21.132,21.132,0,0,0,124.734,122.477Z" transform="translate(-12.223 -11.488)" fill="#ef6c69"/>
      <path id="Path_256" data-name="Path 256" d="M88.753,105.24l.062.029c.171-.425.363-.824.562-1.234a21.147,21.147,0,0,0,1.565-13.548,2.135,2.135,0,0,1-.1-.647.8.8,0,0,1,1.349-.49c.063.06.119.138.177.205l.325.372,4.672,5.341,4.99-5.341.459-.491.048-.052.05-.054a.8.8,0,0,1,1.067,0l.05.054.048.051.46.491,4.993,5.343,4.674-5.343.325-.372.058-.066.069-.086a.771.771,0,0,1,.6-.276.8.8,0,0,1,.8.724.854.854,0,0,1-.023.276,21.136,21.136,0,0,0,1.409,13.75c.216.463.437.915.628,1.389l.067-.031a22.47,22.47,0,0,1,5.712-1.719,22.808,22.808,0,0,1,3.622-.288q.654,0,1.3.037a25.5,25.5,0,0,0-50.651,0A22.652,22.652,0,0,1,88.753,105.24Z" transform="translate(-0.075)" fill="#ef6c69"/>
      <path id="Path_257" data-name="Path 257" d="M98.2,132.687a14.15,14.15,0,0,0,7.02,3.833,21.076,21.076,0,0,0-10.7-17.5A14.2,14.2,0,0,0,98.2,132.687Z" transform="translate(-4.858 -11.489)" fill="#ef6c69"/>
      <path id="Path_258" data-name="Path 258" d="M107.459,100.553l-.336.359,5.026,5.746,0,0q2.514-2.874,5.027-5.747l-.336-.36-4.694-5.021Z" transform="translate(-8.782 -4.439)" fill="#ef6c69"/>
    </g>
    <path id="Path_261" data-name="Path 261" d="M1.5,0H3.78V-6.08h4.6V-7.94H3.78v-4.1h5.9V-13.9H1.5ZM12.8-13.9V0h6.98V-1.84h-4.7V-13.9ZM36.12-6.98a6.929,6.929,0,0,0-7.1-7.1,6.953,6.953,0,0,0-7.1,7.1A6.957,6.957,0,0,0,29.02.14,6.934,6.934,0,0,0,36.12-6.98Zm-11.86,0c0-3.14,2-5.1,4.76-5.1s4.76,1.96,4.76,5.1-2,5.14-4.76,5.14S24.26-3.84,24.26-6.98ZM46.74-9.74c0,1.38-.8,2.36-2.58,2.36H41.64v-4.66h2.52C45.94-12.04,46.74-11.14,46.74-9.74ZM39.36-13.9V0h2.28V-5.56h1.74L46.58,0H49.3L45.86-5.76a3.956,3.956,0,0,0,3.22-3.98c0-2.26-1.62-4.16-4.92-4.16ZM53,0h2.28V-13.9H53ZM68.66-3.94c0-5.08-7.36-3.12-7.36-6.26,0-1.34,1.02-1.98,2.34-1.94a2.175,2.175,0,0,1,2.34,1.84H68.5c-.2-2.38-2.08-3.78-4.74-3.78-2.84,0-4.78,1.52-4.78,3.96,0,5.12,7.38,2.94,7.38,6.3,0,1.18-.9,2.04-2.5,2.04a2.231,2.231,0,0,1-2.48-2.06H58.94c0,2.46,2.14,3.98,4.92,3.98C66.96.14,68.66-1.86,68.66-3.94Zm2.98-8.1h3.72V0h2.28V-12.04h3.7V-13.9h-9.7ZM94.02,0h2.4L91.44-13.92H88.8L83.82,0H86.2l1-2.84h5.82ZM92.38-4.7H87.84l2.28-6.46Z" transform="translate(233.799 46.753)" fill="#1e1e1f"/>
    <path id="Path_260" data-name="Path 260" d="M2.834.013,4.147,0,6.331-7.293,8.437,0H9.763l2.626-9.061H11.115L9.126-1.4,7.046-9.061H5.72L3.536-1.378,1.56-9.061H.3ZM22.347,0H23.53V-9.061H22.347v3.978H17.732V-9.061H16.549V0h1.183V-4.108h4.615Zm14.7-4.537A4.462,4.462,0,0,0,32.5-9.165a4.47,4.47,0,0,0-4.55,4.628A4.47,4.47,0,0,0,32.5.091,4.462,4.462,0,0,0,37.05-4.537Zm-7.891,0a3.3,3.3,0,0,1,3.341-3.6,3.3,3.3,0,0,1,3.341,3.6A3.31,3.31,0,0,1,32.5-.936,3.31,3.31,0,0,1,29.159-4.537ZM41.47-9.061V0h4.355V-.962H42.653v-8.1Zm13.351-.013H49.946V0h4.875V-.975H51.129v-3.12h3.3V-5.07h-3.3V-8.1h3.692Zm10.543,6.6c0-3.354-4.888-1.9-4.888-4.238,0-.975.767-1.482,1.742-1.456a1.641,1.641,0,0,1,1.755,1.313h1.3a2.71,2.71,0,0,0-3-2.327c-1.794,0-3,1.014-3,2.509,0,3.367,4.9,1.807,4.9,4.251,0,.858-.676,1.508-1.82,1.508a1.678,1.678,0,0,1-1.872-1.508H59.215C59.241-.923,60.528.091,62.348.091A2.715,2.715,0,0,0,65.364-2.47ZM76.05,0H77.3L74.035-9.009H72.67L69.394,0h1.248l.728-2.015h3.952ZM74.984-2.977H71.708l1.638-4.576Zm6.6-6.084V0h4.355V-.962H82.771v-8.1Zm13.351-.013H90.064V0h4.875V-.975H91.247v-3.12h3.3V-5.07h-3.3V-8.1h3.692Z" transform="translate(234.799 65.753)" fill="#1e1e1f"/>
  </g>
</svg>
