<svg id="Layer_1" data-name="Layer 1" xmlns="http://www.w3.org/2000/svg" viewBox="0 0 600 230"><defs><style>.cls-1{fill:#231f20;}</style></defs><title>Untitled-1</title><path class="cls-1" d="M111.57,182.35H1V132.43L111.57,1h52.9V135.26h27.42v47.09H164.47v40.83h-52.9Zm0-47.09V66.51L53.15,135.26Z"/><path class="cls-1" d="M210.81,113.06q0-62.28,22.43-87.17T301.56,1q22.07,0,36.22,5.44T360.87,20.6A75.33,75.33,0,0,1,375,38.92a95.68,95.68,0,0,1,8.28,22.43,209.55,209.55,0,0,1,6.1,51q0,59.46-20.11,87t-69.29,27.57q-27.58,0-44.56-8.79a72.21,72.21,0,0,1-27.87-25.78q-7.89-12.08-12.29-33A225.63,225.63,0,0,1,210.81,113.06Zm60.21.15q0,41.73,7.37,57t21.39,15.27a22.43,22.43,0,0,0,16-6.48q6.78-6.48,10-20.49t3.2-43.66q0-43.51-7.37-58.49t-22.13-15q-15.06,0-21.76,15.28T271,113.21Z"/><path class="cls-1" d="M518.68,182.35H408.11V132.43L518.68,1h52.9V135.26H599v47.09H571.58v40.83h-52.9Zm0-47.09V66.51l-58.42,68.75Z"/></svg>