<svg id="Layer_1" data-name="Layer 1" xmlns="http://www.w3.org/2000/svg" viewBox="0 0 600 230"><defs><style>.cls-1{fill:#231f20;}</style></defs><title>Untitled-1</title><path class="cls-1" d="M111.57,183.35H1V133.43L111.57,2h52.9V136.26h27.42v47.09H164.47v40.83h-52.9Zm0-47.09V67.52L53.15,136.26Z"/><path class="cls-1" d="M210.81,114.06q0-62.28,22.43-87.17T301.56,2q22.07,0,36.22,5.44T360.87,21.6A75.19,75.19,0,0,1,375,39.93a95.6,95.6,0,0,1,8.28,22.42,209.61,209.61,0,0,1,6.1,51q0,59.46-20.11,87t-69.29,27.57q-27.58,0-44.56-8.79a72.21,72.21,0,0,1-27.87-25.78q-7.89-12.08-12.29-33A225.56,225.56,0,0,1,210.81,114.06Zm60.21.15q0,41.73,7.37,57t21.39,15.27a22.39,22.39,0,0,0,16-6.48q6.78-6.48,10-20.49t3.2-43.66q0-43.51-7.37-58.49t-22.13-15q-15.06,0-21.76,15.28T271,114.21Z"/><path class="cls-1" d="M473.23,68.91,415.86,58.63q7.15-27.42,27.49-42T501,2q42.77,0,61.84,15.94T581.86,58a44.74,44.74,0,0,1-7.75,25.63q-7.74,11.49-23.39,20.12,12.66,3.12,19.37,7.3A47.25,47.25,0,0,1,587,128.74q6,10.95,6,26.15a72.89,72.89,0,0,1-10,36.59,67,67,0,0,1-28.76,27q-18.78,9.47-49.33,9.46-29.81,0-47-7a70.2,70.2,0,0,1-28.32-20.48q-11.1-13.48-17.06-33.91l60.65-8q3.58,18.33,11.1,25.41T503.48,191A26.32,26.32,0,0,0,523.82,182q8.13-8.94,8.12-23.84,0-15.19-7.82-23.55t-21.24-8.34q-7.14,0-19.67,3.58l3.13-43.37a57.65,57.65,0,0,0,7.9.75q11.92,0,19.9-7.6a24.11,24.11,0,0,0,8-18q0-10-6-16t-16.39-6q-10.74,0-17.44,6.49T473.23,68.91Z"/></svg>