<svg id="Laag_1" data-name="Laag 1" xmlns="http://www.w3.org/2000/svg" viewBox="0 0 400 300"><defs><style>.cls-1{fill:#ccc;}</style></defs><rect class="cls-1" x="31.12" y="61.24" width="300" height="20"/><path class="cls-1" d="M364.3,81.83l14.78-14.78a2.27,2.27,0,0,0,0-3.2l-3.2-3.19a2.26,2.26,0,0,0-3.19,0l-10,10-9.89-9.89a2.26,2.26,0,0,0-3.19,0L346.43,64a2.26,2.26,0,0,0,0,3.19l14.68,14.68a2.26,2.26,0,0,0,3.19,0Z"/><rect class="cls-1" x="31.12" y="139.24" width="300" height="20"/><path class="cls-1" d="M364.3,159.83l14.78-14.78a2.27,2.27,0,0,0,0-3.2l-3.2-3.19a2.26,2.26,0,0,0-3.19,0l-10,10-9.89-9.89a2.26,2.26,0,0,0-3.19,0l-3.19,3.2a2.26,2.26,0,0,0,0,3.19l14.68,14.68a2.26,2.26,0,0,0,3.19,0Z"/><rect class="cls-1" x="31.12" y="217.24" width="300" height="20"/><path class="cls-1" d="M364.3,237.83l14.78-14.78a2.27,2.27,0,0,0,0-3.2l-3.2-3.19a2.26,2.26,0,0,0-3.19,0l-10,10-9.89-9.89a2.26,2.26,0,0,0-3.19,0l-3.19,3.2a2.26,2.26,0,0,0,0,3.19l14.68,14.68a2.26,2.26,0,0,0,3.19,0Z"/><rect class="cls-1" x="21.12" y="110" width="360" height="5"/><rect class="cls-1" x="21.12" y="187.5" width="360" height="5"/><polyline class="cls-1" points="21.12 270 21.12 265 381.12 265 381.12 270"/><polyline class="cls-1" points="381.12 27.5 381.12 32.5 21.12 32.5 21.12 27.5"/></svg>