<svg id="Laag_1" data-name="Laag 1" xmlns="http://www.w3.org/2000/svg" viewBox="0 0 400 300"><defs><style>.cls-1{fill:#ccc;}.cls-2{fill:#fff;}</style></defs><rect class="cls-1" x="20" y="70" width="170" height="40"/><rect class="cls-2" x="60" y="95" width="110" height="5"/><rect class="cls-2" x="60" y="80" width="110" height="10"/><path class="cls-2" d="M44.85,90l-6.72-6.72a1,1,0,0,0-1.42,0l-1.42,1.42a1,1,0,0,0,0,1.42l4.59,4.59-4.39,4.4a1,1,0,0,0,0,1.42L36.91,98a1,1,0,0,0,1.42,0l6.52-6.53a1,1,0,0,0,0-1.42Z"/><rect class="cls-1" x="210" y="70" width="170" height="40"/><rect class="cls-2" x="250" y="95" width="110" height="5"/><rect class="cls-2" x="250" y="80" width="110" height="10"/><path class="cls-2" d="M234.85,90l-6.72-6.72a1,1,0,0,0-1.42,0l-1.42,1.42a1,1,0,0,0,0,1.42l4.59,4.59-4.39,4.4a1,1,0,0,0,0,1.42L226.91,98a1,1,0,0,0,1.42,0l6.52-6.53a1,1,0,0,0,0-1.42Z"/><rect class="cls-1" x="20" y="130" width="170" height="40"/><rect class="cls-2" x="60" y="155" width="110" height="5"/><rect class="cls-2" x="60" y="140" width="110" height="10"/><path class="cls-2" d="M44.85,150l-6.72-6.72a1,1,0,0,0-1.42,0l-1.42,1.42a1,1,0,0,0,0,1.42l4.59,4.59-4.39,4.4a1,1,0,0,0,0,1.42L36.91,158a1,1,0,0,0,1.42,0l6.52-6.53a1,1,0,0,0,0-1.42Z"/><rect class="cls-1" x="210" y="130" width="170" height="40"/><rect class="cls-2" x="250" y="155" width="110" height="5"/><rect class="cls-2" x="250" y="140" width="110" height="10"/><path class="cls-2" d="M234.85,150l-6.72-6.72a1,1,0,0,0-1.42,0l-1.42,1.42a1,1,0,0,0,0,1.42l4.59,4.59-4.39,4.4a1,1,0,0,0,0,1.42l1.42,1.42a1,1,0,0,0,1.42,0l6.52-6.53a1,1,0,0,0,0-1.42Z"/><rect class="cls-1" x="20" y="190" width="170" height="40"/><rect class="cls-2" x="60" y="215" width="110" height="5"/><rect class="cls-2" x="60" y="200" width="110" height="10"/><path class="cls-2" d="M44.85,210l-6.72-6.72a1,1,0,0,0-1.42,0l-1.42,1.42a1,1,0,0,0,0,1.42l4.59,4.59-4.39,4.4a1,1,0,0,0,0,1.42L36.91,218a1,1,0,0,0,1.42,0l6.52-6.53a1,1,0,0,0,0-1.42Z"/><rect class="cls-1" x="210" y="190" width="170" height="40"/><rect class="cls-2" x="250" y="215" width="110" height="5"/><rect class="cls-2" x="250" y="200" width="110" height="10"/><path class="cls-2" d="M234.85,210l-6.72-6.72a1,1,0,0,0-1.42,0l-1.42,1.42a1,1,0,0,0,0,1.42l4.59,4.59-4.39,4.4a1,1,0,0,0,0,1.42l1.42,1.42a1,1,0,0,0,1.42,0l6.52-6.53a1,1,0,0,0,0-1.42Z"/></svg>