<svg id="Laag_1" data-name="Laag 1" xmlns="http://www.w3.org/2000/svg" viewBox="0 0 400 300"><defs><style>.cls-1{fill:#ccc;}.cls-2{fill:#fff;}</style></defs><rect class="cls-1" x="20" y="20" width="106.67" height="140"/><rect class="cls-1" x="20" y="180" width="106.67" height="100"/><polygon class="cls-1" points="146.67 20 146.67 65 146.67 98.39 146.67 100 253.33 100 253.33 98.39 253.33 65 253.33 20 146.67 20"/><polygon class="cls-1" points="146.67 120 146.67 160 146.67 198.57 146.67 200 253.33 200 253.33 198.57 253.33 160 253.33 120 146.67 120"/><rect class="cls-1" x="146.67" y="217.04" width="106.67" height="62.96"/><rect class="cls-1" x="273.33" y="20" width="106.67" height="113.33"/><rect class="cls-1" x="273.33" y="154.85" width="106.67" height="125.15"/><polygon class="cls-2" points="58.99 84.66 29.59 120.85 88.4 120.85 58.99 84.66"/><polygon class="cls-2" points="117.08 90.67 99.36 68.87 57.13 120.85 117.08 120.85 117.08 90.67"/><circle class="cls-2" cx="42.95" cy="68.6" r="7.29"/><polygon class="cls-2" points="58.99 220.85 29.59 257.04 88.4 257.04 58.99 220.85"/><polygon class="cls-2" points="117.08 226.87 99.36 205.06 57.13 257.04 117.08 257.04 117.08 226.87"/><circle class="cls-2" cx="42.95" cy="204.79" r="7.29"/><polygon class="cls-2" points="185.66 53.58 156.25 89.77 215.07 89.77 185.66 53.58"/><polygon class="cls-2" points="243.75 59.59 226.03 37.79 183.8 89.77 243.75 89.77 243.75 59.59"/><circle class="cls-2" cx="169.62" cy="37.52" r="7.29"/><polygon class="cls-2" points="312.33 73.58 282.92 109.77 341.74 109.77 312.33 73.58"/><polygon class="cls-2" points="370.41 79.59 352.7 57.79 310.47 109.77 370.41 109.77 370.41 79.59"/><circle class="cls-2" cx="296.29" cy="57.52" r="7.29"/><polygon class="cls-2" points="312.33 210.61 282.92 246.81 341.74 246.81 312.33 210.61"/><polygon class="cls-2" points="370.41 216.63 352.7 194.83 310.47 246.81 370.41 246.81 370.41 216.63"/><circle class="cls-2" cx="296.29" cy="194.55" r="7.29"/><polygon class="cls-2" points="185.66 153.58 156.25 189.77 215.07 189.77 185.66 153.58"/><polygon class="cls-2" points="243.75 159.59 226.03 137.79 183.8 189.77 243.75 189.77 243.75 159.59"/><circle class="cls-2" cx="169.62" cy="137.52" r="7.29"/><polygon class="cls-2" points="185.66 239.72 156.25 267.49 215.07 267.49 185.66 239.72"/><polygon class="cls-2" points="243.75 244.34 226.03 227.6 183.8 267.49 243.75 267.49 243.75 244.34"/><circle class="cls-2" cx="169.62" cy="231.33" r="7.29"/></svg>