<svg id="Laag_1" data-name="Laag 1" xmlns="http://www.w3.org/2000/svg" viewBox="0 0 400 300"><defs><style>.cls-1{fill:#ccc;}.cls-2{fill:#fff;}</style></defs><rect class="cls-1" x="20" y="148.89" width="105" height="6.93"/><rect class="cls-1" x="20" y="162.74" width="105" height="6.93"/><rect class="cls-1" x="20" y="176.6" width="84.69" height="6.93"/><rect class="cls-1" x="20" y="190.45" width="28.23" height="11.55"/><rect class="cls-1" x="42.25" y="90" width="60.49" height="46.19"/><rect class="cls-1" x="147.5" y="148.89" width="105" height="6.93"/><rect class="cls-1" x="147.5" y="162.74" width="105" height="6.93"/><rect class="cls-1" x="147.5" y="176.6" width="84.69" height="6.93"/><rect class="cls-1" x="147.5" y="190.45" width="28.23" height="11.55"/><rect class="cls-1" x="169.75" y="90" width="60.49" height="46.19"/><rect class="cls-1" x="275" y="148.89" width="105" height="6.93"/><rect class="cls-1" x="275" y="162.74" width="105" height="6.93"/><rect class="cls-1" x="275" y="176.6" width="84.69" height="6.93"/><rect class="cls-1" x="275" y="190.45" width="28.23" height="11.55"/><rect class="cls-1" x="297.25" y="90" width="60.49" height="46.19"/><polygon class="cls-2" points="63.69 114.79 46.22 131.93 81.17 131.93 63.69 114.79"/><polygon class="cls-2" points="98.22 117.64 87.69 107.31 62.59 131.93 98.22 131.93 98.22 117.64"/><circle class="cls-2" cx="54.49" cy="110.11" r="4"/><polygon class="cls-2" points="191.48 114.79 174 131.93 208.96 131.93 191.48 114.79"/><polygon class="cls-2" points="226 117.64 215.47 107.31 190.37 131.93 226 131.93 226 117.64"/><circle class="cls-2" cx="182.28" cy="110.11" r="4"/><polygon class="cls-2" points="318.98 114.79 301.5 131.93 336.46 131.93 318.98 114.79"/><polygon class="cls-2" points="353.5 117.64 342.97 107.31 317.87 131.93 353.5 131.93 353.5 117.64"/><circle class="cls-2" cx="309.78" cy="110.11" r="4"/></svg>