<svg id="Laag_1" data-name="Laag 1" xmlns="http://www.w3.org/2000/svg" viewBox="0 0 400 300"><defs><style>.cls-1{fill:#ccc;}</style></defs><circle class="cls-1" cx="195.02" cy="82.49" r="40"/><rect class="cls-1" x="90.87" y="150.53" width="208.29" height="12.37"/><rect class="cls-1" x="90.87" y="175.27" width="208.29" height="12.37"/><rect class="cls-1" x="90.87" y="200.01" width="208.29" height="12.37"/><rect class="cls-1" x="103.02" y="233" width="104" height="8.25"/><rect class="cls-1" x="215.02" y="233" width="64" height="8.25"/><path class="cls-1" d="M51,161.79V147.58a15.88,15.88,0,0,1,.85-5.76,15,15,0,0,1,2.66-4.74,14.83,14.83,0,0,1,4.1-3.39A14.28,14.28,0,0,1,63.82,132v6.13a8,8,0,0,0-4.68,3.58,12.26,12.26,0,0,0-1.26,5.81h5.94v14.3Zm19.19,0V147.58a15.88,15.88,0,0,1,.86-5.76,14.85,14.85,0,0,1,2.66-4.74,14.69,14.69,0,0,1,4.1-3.39A14.28,14.28,0,0,1,83,132v6.13a8,8,0,0,0-4.69,3.58,12.26,12.26,0,0,0-1.26,5.81h6v14.3Z"/></svg>