<svg id="Laag_1" data-name="Laag 1" xmlns="http://www.w3.org/2000/svg" viewBox="0 0 448 512"><defs><style>.cls-1{fill:#1177c3;}</style></defs><path class="cls-1" d="M353.9,266.9,232.5,388.3a12,12,0,0,1-17,0L94.1,266.9a12,12,0,0,1,0-17l19.6-19.6a12,12,0,0,1,17.2.2L198,300.8V140a12,12,0,0,1,12-12h28a12,12,0,0,1,12,12V300.8l67.1-70.3a12,12,0,0,1,17.2-.2l19.6,19.6a12,12,0,0,1,0,17ZM448,80V432a48,48,0,0,1-48,48H48A48,48,0,0,1,0,432V80A48,48,0,0,1,48,32H400A48,48,0,0,1,448,80ZM400,426V86a6,6,0,0,0-6-6H54a6,6,0,0,0-6,6V426a6,6,0,0,0,6,6H394A6,6,0,0,0,400,426Z"/></svg>