<?xml version="1.0" encoding="utf-8"?>
<!-- Generator: Adobe Illustrator 25.1.0, SVG Export Plug-In . SVG Version: 6.00 Build 0)  -->
<svg version="1.1" id="Laag_1" xmlns="http://www.w3.org/2000/svg" xmlns:xlink="http://www.w3.org/1999/xlink" x="0px" y="0px"
	 viewBox="0 0 384 512" style="enable-background:new 0 0 384 512;" xml:space="preserve">
<style type="text/css">
	.st0{fill:#1177C3;}
</style>
<path class="st0" d="M368,224H224V80c0-8.8-7.2-16-16-16h-32c-8.8,0-16,7.2-16,16v144H16c-8.8,0-16,7.2-16,16v32c0,8.8,7.2,16,16,16
	h144v144c0,8.8,7.2,16,16,16h32c8.8,0,16-7.2,16-16V288h144c8.8,0,16-7.2,16-16v-32C384,231.2,376.8,224,368,224z"/>
</svg>
