<svg id="Laag_1" data-name="Laag 1" xmlns="http://www.w3.org/2000/svg" viewBox="0 0 448 512"><defs><style>.cls-1{fill:#1177c3;}</style></defs><path class="cls-1" d="M433.94,129.94,350.06,46.06A48,48,0,0,0,316.12,32H48A48,48,0,0,0,0,80V432a48,48,0,0,0,48,48H400a48,48,0,0,0,48-48V163.88a48,48,0,0,0-14.06-33.94ZM224,416a64,64,0,1,1,64-64A64,64,0,0,1,224,416Zm96-304.52V212a12,12,0,0,1-12,12H76a12,12,0,0,1-12-12V108A12,12,0,0,1,76,96H304.52A12,12,0,0,1,313,99.51l3.48,3.49A12,12,0,0,1,320,111.48Z"/></svg>