<svg id="Laag_1" data-name="Laag 1" xmlns="http://www.w3.org/2000/svg" viewBox="0 0 448 512"><defs><style>.cls-1{fill:#1177c3;}</style></defs><path class="cls-1" d="M433.94,129.94,350.06,46.06A48,48,0,0,0,316.12,32H48A48,48,0,0,0,0,80V432a48,48,0,0,0,48,48H400a48,48,0,0,0,48-48V163.88a48,48,0,0,0-14.06-33.94ZM288,64v96H96V64ZM416,432a16,16,0,0,1-16,16H48a16,16,0,0,1-16-16V80A16,16,0,0,1,48,64H64V168a24,24,0,0,0,24,24H296a24,24,0,0,0,24-24V64.49a16,16,0,0,1,7.43,4.2l83.88,83.88A15.9,15.9,0,0,1,416,163.88ZM224,232a88,88,0,1,0,88,88A88.1,88.1,0,0,0,224,232Zm0,144a56,56,0,1,1,56-56A56.06,56.06,0,0,1,224,376Z"/></svg>