<?xml version="1.0" encoding="utf-8"?>
<!-- Generator: Adobe Illustrator 25.1.0, SVG Export Plug-In . SVG Version: 6.00 Build 0)  -->
<svg version="1.1" id="Laag_1" xmlns="http://www.w3.org/2000/svg" xmlns:xlink="http://www.w3.org/1999/xlink" x="0px" y="0px"
	 viewBox="0 0 448 512" style="enable-background:new 0 0 448 512;" xml:space="preserve">
<style type="text/css">
	.st0{fill:#FFFFFF;}
</style>
<path class="st0" d="M433.9,129.9l-83.9-83.9c-9-9-21.2-14.1-33.9-14.1H48C21.5,32,0,53.5,0,80v352c0,26.5,21.5,48,48,48h352
	c26.5,0,48-21.5,48-48V163.9C448,151.1,442.9,138.9,433.9,129.9z M224,416c-35.3,0-64-28.7-64-64s28.7-64,64-64s64,28.7,64,64
	S259.3,416,224,416z M320,111.5V212c0,6.6-5.4,12-12,12H76c-6.6,0-12-5.4-12-12V108c0-6.6,5.4-12,12-12h228.5c3.2,0,6.2,1.3,8.5,3.5
	l3.5,3.5C318.7,105.2,320,108.3,320,111.5z"/>
</svg>
