<svg id="Laag_1" data-name="Laag 1" xmlns="http://www.w3.org/2000/svg" viewBox="0 0 352 512"><defs><style>.cls-1{fill:#fff;}</style></defs><path class="cls-1" d="M242.72,256,342.79,155.93a31.46,31.46,0,0,0,0-44.48L320.55,89.21a31.46,31.46,0,0,0-44.48,0L176,189.28,75.93,89.21a31.46,31.46,0,0,0-44.48,0L9.21,111.45a31.46,31.46,0,0,0,0,44.48L109.28,256,9.21,356.07a31.46,31.46,0,0,0,0,44.48l22.24,22.24a31.46,31.46,0,0,0,44.48,0L176,322.72,276.07,422.79a31.46,31.46,0,0,0,44.48,0l22.24-22.24a31.46,31.46,0,0,0,0-44.48Z"/></svg>