<?xml version="1.0" encoding="utf-8"?>
<!-- Generator: Adobe Illustrator 25.1.0, SVG Export Plug-In . SVG Version: 6.00 Build 0)  -->
<svg version="1.1" id="Laag_1" xmlns="http://www.w3.org/2000/svg" xmlns:xlink="http://www.w3.org/1999/xlink" x="0px" y="0px"
	 viewBox="0 0 512 512" style="enable-background:new 0 0 512 512;" xml:space="preserve">
<style type="text/css">
	.st0{fill:#FFFFFF;}
	.st1{fill:#EF6C69;}
</style>
<g>
	<circle class="st0" cx="256" cy="256" r="255"/>
	<g id="Group_567" transform="translate(87.132 -58.745)">
		<path id="Path_254" class="st1" d="M423.5,301.1c-4.8-0.3-9.5-0.5-14.4-0.5c-12.1,0-24.3,1-36.2,3.1c-10.7,1.8-21.2,4.5-31.5,8
			c-5.9,2-11.6,4.2-17.3,6.7c-1.3,0.6-2.5,1.1-3.8,1.7c24.3,83.6-23.7,171-107.3,195.3c-9.8,2.9-19.9,4.8-30.1,5.7
			c-0.2-5.3-0.3-10.7-0.1-16c2.1-80.8,47.1-154.3,118-193c-1.7-4.2-3.6-8.2-5.5-12.3c-1.1-2.4-2.2-4.7-3.2-7.1
			c-12.5-28.6-18.9-59.5-18.9-90.7c0-8,0.4-16,1.2-24L137.8,334.2l-0.3,0.4c-3,3.2-8.1,3.4-11.3,0.4c-2.8-2.6-3.4-6.9-1.3-10.2
			l1.5-1.7l31.9-36.5l-95-108.6c0.8,8,1.3,16,1.2,24c0,16.3-1.7,32.5-5.2,48.5c-0.7,3-1.4,5.9-2.1,8.8c-3,11.4-6.9,22.6-11.6,33.4
			c-2.8,6.3-6,12.3-8.5,18.7l-0.3,0.7c71,38.6,116,112.2,118,193c0.1,5.4,0.1,10.7-0.1,16C67.9,513.3,3.9,436.5,11.8,349.7
			c0.9-10,2.8-19.9,5.6-29.5c-1.3-0.6-2.5-1.1-3.8-1.7c-31.2-13.8-65.3-19.7-99.3-17.4c-0.2,4.5-0.4,9.1-0.4,13.7
			c0,140.8,114.2,255,255,255s255-114.2,255-255C423.9,310.2,423.7,305.6,423.5,301.1z"/>
		<path id="Path_255" class="st1" d="M260.3,362.2c-37.5,37.4-59.4,87.5-61.5,140.4C275.4,486,324,410.4,307.3,333.9
			c-0.5-2.1-1-4.2-1.5-6.2C289.2,337.1,273.8,348.7,260.3,362.2z"/>
		<path id="Path_256" class="st1" d="M22,304.7l0.6,0.3c1.7-4.3,3.6-8.2,5.6-12.3c20-42.2,25.5-89.8,15.7-135.5
			c-0.7-2.1-1-4.3-1-6.5c0.5-4.4,4.4-7.6,8.8-7.1c1.8,0.2,3.4,1,4.7,2.2c0.6,0.6,1.2,1.4,1.8,2.1l3.2,3.7l46.7,53.4l49.9-53.4
			l4.6-4.9l0.5-0.5l0.5-0.5c3-2.7,7.6-2.7,10.7,0l0.5,0.5l0.5,0.5l4.6,4.9l49.9,53.4l46.7-53.4l3.2-3.7l0.6-0.7l0.7-0.9
			c1.5-1.8,3.7-2.8,6-2.8c4.1,0,7.6,3.1,8,7.2c0.1,0.9,0,1.9-0.2,2.8c-10.8,46.1-5.9,94.5,14.1,137.5c2.2,4.6,4.4,9.2,6.3,13.9
			l0.7-0.3c18.2-8.2,37.4-14,57.1-17.2c12-1.9,24.1-2.9,36.2-2.9c4.4,0,8.7,0.1,13,0.4C405.7,145.1,279,45.1,139.1,61.5
			C21.9,75.3-70.6,167.8-84.4,285C-47.8,282.9-11.4,289.7,22,304.7z"/>
		<path id="Path_257" class="st1" d="M68.6,464.3c19.2,19.3,43.6,32.6,70.2,38.3c-3-72.9-43.4-139.1-107-175
			C18.9,376.5,32.9,428.6,68.6,464.3z"/>
		<path id="Path_258" class="st1" d="M122,213.5l-3.4,3.6l50.3,57.5l0,0c16.8-19.2,33.5-38.3,50.3-57.5l-3.4-3.6l-46.9-50.2
			L122,213.5z"/>
	</g>
</g>
</svg>
